<mxfile host="app.diagrams.net" modified="2021-05-03T03:06:04.632Z" agent="5.0 (Windows NT 10.0; Win64; x64) AppleWebKit/537.36 (KHTML, like Gecko) Chrome/90.0.4430.93 Safari/537.36" etag="Rl-3IbF2nWe2rKH3lAEw" version="14.6.9" type="github">
  <diagram id="AZk7ERNz7D7kmE4lG_9a" name="Page-1">
    <mxGraphModel dx="1038" dy="643" grid="1" gridSize="10" guides="1" tooltips="1" connect="1" arrows="1" fold="1" page="1" pageScale="1" pageWidth="827" pageHeight="1169" math="0" shadow="0">
      <root>
        <mxCell id="0" />
        <mxCell id="1" parent="0" />
        <mxCell id="V-MndtSaxHqtHtucEmAg-3" value="BlockConstruct" style="swimlane;fontStyle=1;align=center;verticalAlign=top;childLayout=stackLayout;horizontal=1;startSize=26;horizontalStack=0;resizeParent=1;resizeParentMax=0;resizeLast=0;collapsible=1;marginBottom=0;" vertex="1" parent="1">
          <mxGeometry x="30" y="50" width="160" height="134" as="geometry" />
        </mxCell>
        <mxCell id="V-MndtSaxHqtHtucEmAg-4" value="+ variables: Variable[]&#xa;+ function_holders: Object[]&#xa;+ services: Dictionary&#xa;+ statements: Statement[]&#xa;" style="text;fillColor=none;align=left;verticalAlign=top;spacingLeft=4;spacingRight=4;overflow=hidden;rotatable=0;points=[[0,0.5],[1,0.5]];portConstraint=eastwest;horizontal=1;whiteSpace=wrap;" vertex="1" parent="V-MndtSaxHqtHtucEmAg-3">
          <mxGeometry y="26" width="160" height="74" as="geometry" />
        </mxCell>
        <mxCell id="V-MndtSaxHqtHtucEmAg-5" value="" style="line;strokeWidth=1;fillColor=none;align=left;verticalAlign=middle;spacingTop=-1;spacingLeft=3;spacingRight=3;rotatable=0;labelPosition=right;points=[];portConstraint=eastwest;" vertex="1" parent="V-MndtSaxHqtHtucEmAg-3">
          <mxGeometry y="100" width="160" height="8" as="geometry" />
        </mxCell>
        <mxCell id="V-MndtSaxHqtHtucEmAg-6" value="+ execute()" style="text;strokeColor=none;fillColor=none;align=left;verticalAlign=top;spacingLeft=4;spacingRight=4;overflow=hidden;rotatable=0;points=[[0,0.5],[1,0.5]];portConstraint=eastwest;" vertex="1" parent="V-MndtSaxHqtHtucEmAg-3">
          <mxGeometry y="108" width="160" height="26" as="geometry" />
        </mxCell>
      </root>
    </mxGraphModel>
  </diagram>
</mxfile>
